<svg width="2408" height="568" viewBox="0 0 2408 568" fill="none" xmlns="http://www.w3.org/2000/svg">
<rect width="2408" height="568" fill="#E3E3E3"/>
<circle cx="405" cy="287.271" r="192" fill="#222222"/>
<ellipse cx="438.746" cy="249.156" rx="113.863" ry="119.193" transform="rotate(-30 438.746 249.156)" fill="#EEEEEE"/>
<path d="M359.676 259.287C351.176 244.564 350.321 229.084 357.112 212.847C364.048 196.526 377.402 182.657 397.177 171.24C417.095 159.74 436.125 155.201 454.266 157.621C472.551 159.959 484.735 166.396 490.818 176.932C491.568 178.231 491.73 179.678 491.303 181.271C490.937 182.637 490.176 183.654 489.022 184.32L445.72 209.32C442.401 211.237 438.661 211.76 434.502 210.89C430.343 210.019 425.954 210.917 421.335 213.584C414.407 217.584 412.11 221.605 414.443 225.646C415.693 227.811 418.394 228.657 422.548 228.184C426.845 227.627 433.946 225.26 443.85 221.081C466.94 211.407 485.156 207.625 498.499 209.737C511.904 211.62 522.898 219.995 531.481 234.862C539.981 249.584 540.155 265.553 532.004 282.769C523.914 299.756 508.972 314.542 487.177 327.125C465.382 339.708 445.694 345.109 428.115 343.327C410.535 341.544 398.037 334.23 390.62 321.384C389.87 320.085 389.678 318.753 390.044 317.387C390.471 315.793 391.334 314.621 392.633 313.871L433.77 290.121C436.801 288.371 440.954 287.898 446.229 288.701C451.648 289.421 457.606 287.906 464.101 284.156C474.926 277.906 479.172 272.761 476.839 268.719C475.339 266.121 472.265 265.297 467.618 266.248C462.888 267.055 454.693 269.862 443.034 274.668C402.962 291.261 375.176 286.134 359.676 259.287Z" fill="#222222"/>
<path d="M801.4 318.2C801.4 316.867 801.067 315.8 800.4 315C798.667 312.867 792.267 310.8 781.2 308.8C770.133 306.667 761.133 303 754.2 297.8C747.4 292.467 744 285.067 744 275.6C744 266.133 748.533 258 757.6 251.2C766.667 244.4 778.867 241 794.2 241C809.667 241 822.333 244.2 832.2 250.6C842.067 257 847 263.467 847 270C847 271.467 846.533 272.733 845.6 273.8C844.8 274.867 843.8 275.4 842.6 275.4H809C807 275.4 804.533 274.333 801.6 272.2C798.667 270.067 796.467 269 795 269C791.933 269 790.4 270.067 790.4 272.2C790.4 273.533 790.733 274.6 791.4 275.4C793.133 277.4 800.4 279.333 813.2 281.2C826 283.067 835.533 287.2 841.8 293.6C848.2 299.867 851.4 306.867 851.4 314.6C851.4 325.4 846.533 333.867 836.8 340C827.067 346.133 813.267 349.2 795.4 349.2C785.933 349.2 777.533 348.133 770.2 346C762.867 343.867 757.267 341.2 753.4 338C745.8 331.733 742 325.867 742 320.4C742 318.933 742.467 317.667 743.4 316.6C744.333 315.533 745.467 315 746.8 315H781.6C783.467 315 785.867 316.067 788.8 318.2C791.867 320.2 794.733 321.2 797.4 321.2C800.067 321.2 801.4 320.2 801.4 318.2ZM863.703 317.2C863.703 299.2 878.303 287.667 907.503 282.6L928.703 279.2C928.703 275.2 928.37 272.533 927.703 271.2C927.036 269.733 925.436 269 922.903 269C920.503 269 918.103 270.067 915.703 272.2C913.303 274.333 911.036 275.4 908.903 275.4H874.903C871.97 275.4 870.503 274 870.503 271.2C870.503 268.267 871.503 265.2 873.503 262C875.636 258.667 878.636 255.4 882.503 252.2C886.503 249 892.036 246.333 899.103 244.2C906.303 242.067 914.303 241 923.103 241C940.97 241 954.37 244.733 963.303 252.2C972.236 259.667 976.703 270.333 976.703 284.2V341.6C976.703 343.067 976.17 344.333 975.103 345.4C974.036 346.467 972.77 347 971.303 347H936.303C934.836 347 933.57 346.467 932.503 345.4C931.436 344.333 930.903 343.067 930.903 341.6V336C924.636 344.667 915.503 349 903.503 349C891.503 349 881.836 346 874.503 340C867.303 333.867 863.703 326.267 863.703 317.2ZM916.303 319.4C924.97 319.4 929.303 314.2 929.303 303.8L917.503 306.4C911.636 307.733 908.703 310.2 908.703 313.8C908.703 315.4 909.37 316.733 910.703 317.8C912.036 318.867 913.903 319.4 916.303 319.4ZM1113.41 286.4V341.6C1113.41 343.067 1112.88 344.333 1111.81 345.4C1110.74 346.467 1109.48 347 1108.01 347H1069.81C1068.34 347 1067.08 346.467 1066.01 345.4C1064.94 344.333 1064.41 343.067 1064.41 341.6V287.8C1064.41 280.467 1061.08 276.8 1054.41 276.8C1047.74 276.8 1044.41 280.467 1044.41 287.8V341.6C1044.41 343.067 1043.88 344.333 1042.81 345.4C1041.74 346.467 1040.48 347 1039.01 347H1001.01C999.543 347 998.276 346.467 997.209 345.4C996.143 344.333 995.609 343.067 995.609 341.6V248.4C995.609 246.933 996.143 245.667 997.209 244.6C998.276 243.533 999.543 243 1001.01 243H1036.01C1037.48 243 1038.74 243.533 1039.81 244.6C1040.88 245.667 1041.41 246.933 1041.41 248.4V255C1044.88 250.867 1049.54 247.533 1055.41 245C1061.41 242.333 1067.81 241 1074.61 241C1085.54 241 1094.74 244.867 1102.21 252.6C1109.68 260.2 1113.41 271.467 1113.41 286.4ZM1192.33 278V300C1192.33 306.667 1195.19 310 1200.93 310H1219.13C1220.59 310 1221.86 310.533 1222.93 311.6C1223.99 312.667 1224.53 313.933 1224.53 315.4V341.6C1224.53 343.067 1223.99 344.333 1222.93 345.4C1221.86 346.467 1220.59 347 1219.13 347H1196.53C1163.19 347 1146.53 332.667 1146.53 304V278H1130.73C1129.26 278 1127.99 277.467 1126.93 276.4C1125.86 275.333 1125.33 274.067 1125.33 272.6V248.4C1125.33 246.933 1125.86 245.667 1126.93 244.6C1127.99 243.533 1129.26 243 1130.73 243H1146.53V210.4C1146.53 208.933 1147.06 207.667 1148.13 206.6C1149.19 205.533 1150.46 205 1151.93 205H1186.93C1188.39 205 1189.66 205.533 1190.73 206.6C1191.79 207.667 1192.33 208.933 1192.33 210.4V243H1217.53C1218.99 243 1220.26 243.533 1221.33 244.6C1222.39 245.667 1222.93 246.933 1222.93 248.4V272.6C1222.93 274.067 1222.39 275.333 1221.33 276.4C1220.26 277.467 1218.99 278 1217.53 278H1192.33ZM1235.58 301.8V288.2C1235.58 273 1240.98 261.333 1251.78 253.2C1262.58 245.067 1276.51 241 1293.58 241C1310.64 241 1324.58 245.067 1335.38 253.2C1346.18 261.333 1351.58 273 1351.58 288.2V301.8C1351.58 317.133 1346.38 328.867 1335.98 337C1325.58 345 1311.44 349 1293.58 349C1275.71 349 1261.58 345 1251.18 337C1240.78 328.867 1235.58 317.133 1235.58 301.8ZM1302.58 303.4V286.6C1302.58 281.533 1301.91 278 1300.58 276C1299.24 274 1296.91 273 1293.58 273C1290.24 273 1287.91 274 1286.58 276C1285.24 278 1284.58 281.533 1284.58 286.6V303.4C1284.58 308.733 1285.24 312.333 1286.58 314.2C1287.91 316.067 1290.24 317 1293.58 317C1296.91 317 1299.24 316 1300.58 314C1301.91 312 1302.58 308.467 1302.58 303.4ZM1424.06 318.2C1424.06 316.867 1423.72 315.8 1423.06 315C1421.32 312.867 1414.92 310.8 1403.86 308.8C1392.79 306.667 1383.79 303 1376.86 297.8C1370.06 292.467 1366.66 285.067 1366.66 275.6C1366.66 266.133 1371.19 258 1380.26 251.2C1389.32 244.4 1401.52 241 1416.86 241C1432.32 241 1444.99 244.2 1454.86 250.6C1464.72 257 1469.66 263.467 1469.66 270C1469.66 271.467 1469.19 272.733 1468.26 273.8C1467.46 274.867 1466.46 275.4 1465.26 275.4H1431.66C1429.66 275.4 1427.19 274.333 1424.26 272.2C1421.32 270.067 1419.12 269 1417.66 269C1414.59 269 1413.06 270.067 1413.06 272.2C1413.06 273.533 1413.39 274.6 1414.06 275.4C1415.79 277.4 1423.06 279.333 1435.86 281.2C1448.66 283.067 1458.19 287.2 1464.46 293.6C1470.86 299.867 1474.06 306.867 1474.06 314.6C1474.06 325.4 1469.19 333.867 1459.46 340C1449.72 346.133 1435.92 349.2 1418.06 349.2C1408.59 349.2 1400.19 348.133 1392.86 346C1385.52 343.867 1379.92 341.2 1376.06 338C1368.46 331.733 1364.66 325.867 1364.66 320.4C1364.66 318.933 1365.12 317.667 1366.06 316.6C1366.99 315.533 1368.12 315 1369.46 315H1404.26C1406.12 315 1408.52 316.067 1411.46 318.2C1414.52 320.2 1417.39 321.2 1420.06 321.2C1422.72 321.2 1424.06 320.2 1424.06 318.2ZM1496.76 301.4H1531.56C1533.03 301.4 1534.29 301.933 1535.36 303C1536.43 304.067 1536.96 305.333 1536.96 306.8V341.6C1536.96 343.067 1536.43 344.333 1535.36 345.4C1534.29 346.467 1533.03 347 1531.56 347H1496.76C1495.29 347 1494.03 346.467 1492.96 345.4C1491.89 344.333 1491.36 343.067 1491.36 341.6V306.8C1491.36 305.333 1491.89 304.067 1492.96 303C1494.03 301.933 1495.29 301.4 1496.76 301.4ZM1614.29 318.2C1614.29 316.867 1613.96 315.8 1613.29 315C1611.56 312.867 1605.16 310.8 1594.09 308.8C1583.02 306.667 1574.02 303 1567.09 297.8C1560.29 292.467 1556.89 285.067 1556.89 275.6C1556.89 266.133 1561.42 258 1570.49 251.2C1579.56 244.4 1591.76 241 1607.09 241C1622.56 241 1635.22 244.2 1645.09 250.6C1654.96 257 1659.89 263.467 1659.89 270C1659.89 271.467 1659.42 272.733 1658.49 273.8C1657.69 274.867 1656.69 275.4 1655.49 275.4H1621.89C1619.89 275.4 1617.42 274.333 1614.49 272.2C1611.56 270.067 1609.36 269 1607.89 269C1604.82 269 1603.29 270.067 1603.29 272.2C1603.29 273.533 1603.62 274.6 1604.29 275.4C1606.02 277.4 1613.29 279.333 1626.09 281.2C1638.89 283.067 1648.42 287.2 1654.69 293.6C1661.09 299.867 1664.29 306.867 1664.29 314.6C1664.29 325.4 1659.42 333.867 1649.69 340C1639.96 346.133 1626.16 349.2 1608.29 349.2C1598.82 349.2 1590.42 348.133 1583.09 346C1575.76 343.867 1570.16 341.2 1566.29 338C1558.69 331.733 1554.89 325.867 1554.89 320.4C1554.89 318.933 1555.36 317.667 1556.29 316.6C1557.22 315.533 1558.36 315 1559.69 315H1594.49C1596.36 315 1598.76 316.067 1601.69 318.2C1604.76 320.2 1607.62 321.2 1610.29 321.2C1612.96 321.2 1614.29 320.2 1614.29 318.2ZM1739.59 278V300C1739.59 306.667 1742.46 310 1748.19 310H1766.39C1767.86 310 1769.13 310.533 1770.19 311.6C1771.26 312.667 1771.79 313.933 1771.79 315.4V341.6C1771.79 343.067 1771.26 344.333 1770.19 345.4C1769.13 346.467 1767.86 347 1766.39 347H1743.79C1710.46 347 1693.79 332.667 1693.79 304V278H1677.99C1676.53 278 1675.26 277.467 1674.19 276.4C1673.13 275.333 1672.59 274.067 1672.59 272.6V248.4C1672.59 246.933 1673.13 245.667 1674.19 244.6C1675.26 243.533 1676.53 243 1677.99 243H1693.79V210.4C1693.79 208.933 1694.33 207.667 1695.39 206.6C1696.46 205.533 1697.73 205 1699.19 205H1734.19C1735.66 205 1736.93 205.533 1737.99 206.6C1739.06 207.667 1739.59 208.933 1739.59 210.4V243H1764.79C1766.26 243 1767.53 243.533 1768.59 244.6C1769.66 245.667 1770.19 246.933 1770.19 248.4V272.6C1770.19 274.067 1769.66 275.333 1768.59 276.4C1767.53 277.467 1766.26 278 1764.79 278H1739.59ZM1784.84 303.6V248.4C1784.84 246.933 1785.38 245.667 1786.44 244.6C1787.51 243.533 1788.78 243 1790.24 243H1828.44C1829.91 243 1831.18 243.533 1832.24 244.6C1833.31 245.667 1833.84 246.933 1833.84 248.4V302.2C1833.84 309.533 1837.18 313.2 1843.84 313.2C1850.51 313.2 1853.84 309.533 1853.84 302.2V248.4C1853.84 246.933 1854.38 245.667 1855.44 244.6C1856.51 243.533 1857.78 243 1859.24 243H1897.24C1898.71 243 1899.98 243.533 1901.04 244.6C1902.11 245.667 1902.64 246.933 1902.64 248.4V341.6C1902.64 343.067 1902.11 344.333 1901.04 345.4C1899.98 346.467 1898.71 347 1897.24 347H1862.24C1860.78 347 1859.51 346.467 1858.44 345.4C1857.38 344.333 1856.84 343.067 1856.84 341.6V335C1850.58 344.333 1839.51 349 1823.64 349C1812.71 349 1803.51 345.2 1796.04 337.6C1788.58 329.867 1784.84 318.533 1784.84 303.6ZM1919.56 302.8V287C1919.56 272.067 1923.56 260.667 1931.56 252.8C1939.56 244.933 1949.3 241 1960.76 241C1972.36 241 1981.63 244.133 1988.56 250.4V210.4C1988.56 208.933 1989.1 207.667 1990.16 206.6C1991.23 205.533 1992.5 205 1993.96 205H2030.96C2032.43 205 2033.7 205.533 2034.76 206.6C2035.83 207.667 2036.36 208.933 2036.36 210.4V341.6C2036.36 343.067 2035.83 344.333 2034.76 345.4C2033.7 346.467 2032.43 347 2030.96 347H1996.96C1995.5 347 1994.23 346.467 1993.16 345.4C1992.1 344.333 1991.56 343.067 1991.56 341.6V335.6C1984.63 344.533 1974.83 349 1962.16 349C1949.5 349 1939.23 345.267 1931.36 337.8C1923.5 330.2 1919.56 318.533 1919.56 302.8ZM1988.56 301.6V286.8C1988.16 280.133 1984.83 276.8 1978.56 276.8C1971.9 276.8 1968.56 280.667 1968.56 288.4V301.6C1968.56 309.333 1971.9 313.2 1978.56 313.2C1985.23 313.2 1988.56 309.333 1988.56 301.6ZM2097.55 347H2061.75C2060.28 347 2059.02 346.467 2057.95 345.4C2056.88 344.333 2056.35 343.067 2056.35 341.6V248.4C2056.35 246.933 2056.88 245.667 2057.95 244.6C2059.02 243.533 2060.28 243 2061.75 243H2097.55C2099.02 243 2100.28 243.533 2101.35 244.6C2102.42 245.667 2102.95 246.933 2102.95 248.4V341.6C2102.95 343.067 2102.42 344.333 2101.35 345.4C2100.28 346.467 2099.02 347 2097.55 347ZM2101.95 204.4V228.6C2101.95 230.067 2101.42 231.333 2100.35 232.4C2099.28 233.467 2098.02 234 2096.55 234H2062.75C2061.28 234 2060.02 233.467 2058.95 232.4C2057.88 231.333 2057.35 230.067 2057.35 228.6V204.4C2057.35 202.933 2057.88 201.667 2058.95 200.6C2060.02 199.533 2061.28 199 2062.75 199H2096.55C2098.02 199 2099.28 199.533 2100.35 200.6C2101.42 201.667 2101.95 202.933 2101.95 204.4ZM2174.95 256.6V296.8C2174.95 300.667 2175.89 303.8 2177.75 306.2C2179.62 308.6 2182.35 309.8 2185.95 309.8C2189.55 309.8 2192.29 308.6 2194.15 306.2C2196.02 303.8 2196.95 300.667 2196.95 296.8V256.6C2196.95 247.933 2193.29 243.6 2185.95 243.6C2178.62 243.6 2174.95 247.933 2174.95 256.6ZM2248.95 258.6V295.2C2248.95 312.4 2243.29 325.667 2231.95 335C2220.75 344.333 2205.42 349 2185.95 349C2166.49 349 2151.09 344.333 2139.75 335C2128.55 325.533 2122.95 312.133 2122.95 294.8V259C2122.95 241.8 2128.75 228.533 2140.35 219.2C2152.09 209.733 2167.29 205 2185.95 205C2204.62 205 2219.75 209.733 2231.35 219.2C2243.09 228.533 2248.95 241.667 2248.95 258.6Z" fill="black"/>
</svg>
