<svg width="593" height="150" viewBox="0 0 593 150" fill="none" xmlns="http://www.w3.org/2000/svg">
<path d="M0 25H21.0377V0H0L0 3.5C19.6804 3.5 19.0018 20.5 0 20.5L0 25Z" fill="white"/>
<path d="M0 100H21.0377V75H0L0 78.5C19.6804 78.5 19.0018 95.5 0 95.5L0 100Z" fill="white"/>
<path d="M0 125H21.0377V100H0L0 103.5C19.6804 103.5 19.0018 120.5 0 120.5L0 125Z" fill="white"/>
<path d="M0 150H21.0377V125H0L0 128.5C19.6804 128.5 19.0018 145.5 0 145.5L0 150Z" fill="white"/>
<path d="M0 75H21.0377V50H0L0 53.5C19.6804 53.5 19.0018 70.5 0 70.5L0 75Z" fill="white"/>
<path d="M0 50H21.0377V25H0L0 28.5C19.6804 28.5 19.0018 45.5 0 45.5L0 50Z" fill="white"/>
<rect x="21.0377" width="571.962" height="150" fill="white"/>
<line x1="44.2699" y1="150" x2="44.2699" y2="-5.81774e-08" stroke="#FF0000" stroke-width="3.5"/>
<line x1="68" y1="24.5" x2="576" y2="24.5" stroke="#7FD0F3"/>
<line x1="68" y1="124.5" x2="576" y2="124.5" stroke="#7FD0F3"/>
<line x1="68" y1="99.5" x2="576" y2="99.5" stroke="#7FD0F3"/>
<line x1="68" y1="74.5" x2="576" y2="74.5" stroke="#7FD0F3"/>
<line x1="68" y1="49.5" x2="576" y2="49.5" stroke="#7FD0F3"/>
</svg>