<svg width="384" height="385" viewBox="0 0 384 385" fill="none" xmlns="http://www.w3.org/2000/svg">
<circle cx="192" cy="192.271" r="192" fill="#222222"/>
<ellipse cx="225.746" cy="154.156" rx="113.863" ry="119.193" transform="rotate(-30 225.746 154.156)" fill="#EEEEEE"/>
<path d="M146.676 164.287C138.176 149.565 137.321 134.085 144.112 117.847C151.048 101.526 164.402 87.6573 184.177 76.2407C204.095 64.7407 223.125 60.201 241.266 62.6216C259.551 64.9589 271.735 71.3958 277.818 81.9325C278.568 83.2315 278.73 84.6779 278.303 86.2716C277.937 87.6376 277.176 88.654 276.022 89.3206L232.72 114.321C229.401 116.237 225.661 116.76 221.502 115.89C217.343 115.02 212.954 115.918 208.335 118.584C201.407 122.584 199.11 126.605 201.443 130.647C202.693 132.812 205.394 133.658 209.548 133.184C213.845 132.628 220.946 130.26 230.85 126.081C253.94 116.407 272.156 112.626 285.499 114.737C298.904 116.62 309.898 124.996 318.481 139.862C326.981 154.585 327.155 170.554 319.004 187.769C310.914 204.756 295.972 219.542 274.177 232.125C252.382 244.709 232.694 250.109 215.115 248.327C197.535 246.545 185.037 239.23 177.62 226.384C176.87 225.085 176.678 223.753 177.044 222.387C177.471 220.793 178.334 219.621 179.633 218.871L220.77 195.121C223.801 193.371 227.954 192.898 233.229 193.701C238.648 194.421 244.606 192.907 251.101 189.157C261.926 182.907 266.172 177.761 263.839 173.719C262.339 171.121 259.265 170.298 254.618 171.249C249.888 172.055 241.693 174.862 230.034 179.669C189.962 196.261 162.176 191.134 146.676 164.287Z" fill="#222222"/>
</svg>
