<svg version="1.1" xmlns="http://www.w3.org/2000/svg" viewBox="0 0 679 609.4791208791207" width="679" height="609.4791208791207">
  <!-- svg-source:excalidraw -->
  
  <defs>
    <style class="style-fonts">
      @font-face {
        font-family: "Virgil";
        src: url("https://excalidraw.com/Virgil.woff2");
      }
      @font-face {
        font-family: "Cascadia";
        src: url("https://excalidraw.com/Cascadia.woff2");
      }
      @font-face {
        font-family: "Assistant";
        src: url("https://excalidraw.com/Assistant-Regular.woff2");
      }
    </style>
    
  </defs>
  <g stroke-linecap="round" transform="translate(10 10) rotate(0 329.5 294.73956043956036)"><path d="M412.5 73.75 C447.09 105.63, 489.8 143.81, 576.5 221.25 C660.98 296.73, 657.35 293.99, 576.5 368.75 C520.75 417.56, 469.28 463.19, 412.5 515.73 C333.43 586.49, 331.68 587.81, 247.5 515.73 C214.52 479.63, 175.96 449.3, 82.5 368.75 C1.6 292.57, 3.45 296.66, 82.5 221.25 C134.35 172.54, 188.12 128.46, 247.5 73.75 C326.96 2.89, 331.37 -1.76, 412.5 73.75" stroke="none" stroke-width="0" fill="#1e1e1e"></path><path d="M412.5 73.75 C462.1 120.36, 513.98 166.04, 576.5 221.25 M412.5 73.75 C467.49 121.92, 523.84 173.39, 576.5 221.25 M576.5 221.25 C658.28 295.38, 660.04 294.7, 576.5 368.75 M576.5 221.25 C659.96 294.48, 657.96 296.59, 576.5 368.75 M576.5 368.75 C541.18 400.66, 502.52 434.93, 412.5 515.73 M576.5 368.75 C538.27 403.57, 500.37 437.38, 412.5 515.73 M412.5 515.73 C329.91 587.67, 328.92 589.1, 247.5 515.73 M412.5 515.73 C330.51 591.46, 331.91 590.87, 247.5 515.73 M247.5 515.73 C181.1 457.22, 116.28 399.16, 82.5 368.75 M247.5 515.73 C196.25 469.12, 146.65 424.35, 82.5 368.75 M82.5 368.75 C0.26 294.58, -0.98 294.49, 82.5 221.25 M82.5 368.75 C1.16 294.98, 0.19 296.15, 82.5 221.25 M82.5 221.25 C138.4 172.81, 193.26 123.69, 247.5 73.75 M82.5 221.25 C120.08 189.04, 158.07 156.93, 247.5 73.75 M247.5 73.75 C331.49 -1.01, 331.24 -0.98, 412.5 73.75 M247.5 73.75 C331.37 -0.82, 330.04 -1.19, 412.5 73.75" stroke="#1e1e1e" stroke-width="2" fill="none"></path></g><g stroke-linecap="round" transform="translate(55.5 47.260439560439636) rotate(0 286.45945945945937 256.23956043956036)"><path d="M358.75 64.25 C388.35 88.62, 421.62 116.02, 501.17 192.75 C575.52 254.35, 570.37 255.14, 501.17 321.25 C455.57 360.97, 411.25 402.4, 358.75 448.23 C288 513.94, 284.33 509.81, 215.25 448.23 C181.51 422.39, 149.72 393.5, 71.75 321.25 C-2.77 257.52, 0 258.91, 71.75 192.75 C124.23 144.43, 181.05 96.35, 215.25 64.25 C289.63 -1.58, 288.34 -2.09, 358.75 64.25" stroke="none" stroke-width="0" fill="#fab005"></path><path d="M358.75 64.25 C403.86 103.88, 448.43 145.96, 501.17 192.75 M358.75 64.25 C393.38 94.6, 428.26 124.96, 501.17 192.75 M501.17 192.75 C574.89 255.12, 573.52 258.46, 501.17 321.25 M501.17 192.75 C573.72 255.94, 570.83 256.05, 501.17 321.25 M501.17 321.25 C466.04 353.67, 435.14 381.51, 358.75 448.23 M501.17 321.25 C468.83 351.48, 434.39 380.46, 358.75 448.23 M358.75 448.23 C286.45 513.43, 286.84 511.1, 215.25 448.23 M358.75 448.23 C288.52 512.84, 285.97 511.27, 215.25 448.23 M215.25 448.23 C182.56 423.24, 154.49 394.95, 71.75 321.25 M215.25 448.23 C170.49 407.56, 125.4 367.67, 71.75 321.25 M71.75 321.25 C1.05 257.2, -1.94 257.45, 71.75 192.75 M71.75 321.25 C-0.49 255.5, 0.04 257.7, 71.75 192.75 M71.75 192.75 C114.79 158.13, 152.71 121.65, 215.25 64.25 M71.75 192.75 C124.53 143.7, 177.65 96.22, 215.25 64.25 M215.25 64.25 C287.72 0.28, 285.49 -1.9, 358.75 64.25 M215.25 64.25 C286.9 0.16, 285.48 0.95, 358.75 64.25" stroke="#1e1e1e" stroke-width="2" fill="none"></path></g><g stroke-linecap="round"><g transform="translate(331.87416737690864 128.64377819577697) rotate(0 13.763873703309116 -17.138746522152857)" fill-rule="evenodd"><path d="M1.28 -1.64 C2.04 -7.34, -1.72 -30.83, 2.42 -36.01 C6.57 -41.2, 22.28 -38.61, 26.15 -32.74 C30.02 -26.87, 29.61 -6.11, 25.64 -0.79 C21.67 4.54, 6.77 -1.22, 2.31 -0.8" stroke="none" stroke-width="0" fill="#ced4da" fill-rule="evenodd"></path><path d="M-0.06 0.67 C0.41 -5.02, -1.53 -28.52, 2.67 -34.1 C6.86 -39.68, 20.82 -38.66, 25.11 -32.8 C29.4 -26.95, 32.43 -4.28, 28.42 1.05 C24.41 6.38, 5.68 -0.54, 1.07 -0.81 M-1.55 -0.02 C-1.16 -5.5, -2.28 -27.13, 2.06 -32.46 C6.4 -37.79, 19.98 -37.25, 24.5 -32 C29.01 -26.75, 33.19 -6.15, 29.13 -0.96 C25.08 4.24, 5.2 -1.29, 0.17 -0.85" stroke="#1e1e1e" stroke-width="2" fill="none"></path></g></g><mask></mask><g stroke-linecap="round" transform="translate(324.2507515172032 170.0436091131761) rotate(0 24.258313409086327 5.532597795054755)"><path d="M2.77 0 C14.99 2.49, 30.96 2.14, 45.75 0 C47.59 0.19, 49.01 -1.19, 48.52 2.77 C47.82 5.6, 48.43 7.19, 48.52 8.3 C50.16 9.02, 45 11.48, 45.75 11.07 C32.23 9.56, 18.25 9.54, 2.77 11.07 C-0.69 9.01, -2.08 8.32, 0 8.3 C0.4 6.76, 0.34 6.55, 0 2.77 C0.74 2.74, 1.76 -1.33, 2.77 0" stroke="none" stroke-width="0" fill="#ced4da"></path><path d="M2.77 0 C12.27 -0.31, 20.2 0.02, 45.75 0 M2.77 0 C19.13 0.31, 34.66 0.23, 45.75 0 M45.75 0 C47.71 0.05, 48.42 0.67, 48.52 2.77 M45.75 0 C47.98 -0.53, 48.22 0.93, 48.52 2.77 M48.52 2.77 C48.47 4.23, 48.7 5.45, 48.52 8.3 M48.52 2.77 C48.45 4.13, 48.49 5.31, 48.52 8.3 M48.52 8.3 C48.75 10.87, 46.95 11.65, 45.75 11.07 M48.52 8.3 C49.35 9.26, 46.52 12.08, 45.75 11.07 M45.75 11.07 C32.39 10.79, 17.31 10.65, 2.77 11.07 M45.75 11.07 C29.84 11.2, 15.14 10.41, 2.77 11.07 M2.77 11.07 C0.53 10.79, 0.43 10.95, 0 8.3 M2.77 11.07 C0.06 10.21, -0.98 11.18, 0 8.3 M0 8.3 C-0.13 6.2, 0.17 4.8, 0 2.77 M0 8.3 C0 7.1, 0.07 5.84, 0 2.77 M0 2.77 C-0.8 0.81, 0.4 -0.1, 2.77 0 M0 2.77 C-0.45 0.58, -0.16 0.91, 2.77 0" stroke="#1e1e1e" stroke-width="2" fill="none"></path></g><g stroke-linecap="round" transform="translate(293.60867142151506 124.93165786119079) rotate(0 57.02831573364165 24.258313409086384)"><path d="M12.13 0 C46.47 -2.59, 82.49 0.84, 101.93 0 C113.23 1.16, 111.49 7.1, 114.06 12.13 C114.66 18.25, 116.02 21.12, 114.06 36.39 C115.27 47.91, 110.24 44.96, 101.93 48.52 C81.8 46.99, 54.46 47.01, 12.13 48.52 C5.69 47.24, -2.98 46.56, 0 36.39 C3.39 27.72, 2.03 15.16, 0 12.13 C-0.63 6.52, 3.69 0.5, 12.13 0" stroke="none" stroke-width="0" fill="#343a40"></path><path d="M12.13 0 C34.43 1.18, 57.42 -0.44, 101.93 0 M12.13 0 C46.14 0.36, 81.5 -0.46, 101.93 0 M101.93 0 C111.15 -1.21, 115.4 5.77, 114.06 12.13 M101.93 0 C109.9 -1.15, 112.9 2.09, 114.06 12.13 M114.06 12.13 C112.74 17.29, 113.81 23.44, 114.06 36.39 M114.06 12.13 C113.25 18.35, 113.68 24.44, 114.06 36.39 M114.06 36.39 C113.07 43.36, 110.26 48.04, 101.93 48.52 M114.06 36.39 C113.54 43.79, 109.87 50.2, 101.93 48.52 M101.93 48.52 C82.9 49.79, 62.99 48.45, 12.13 48.52 M101.93 48.52 C75.74 48.18, 51.48 47.58, 12.13 48.52 M12.13 48.52 C4.91 47.93, 1.36 42.87, 0 36.39 M12.13 48.52 C3.94 49.96, 0.23 42.41, 0 36.39 M0 36.39 C-0.28 26.96, 1.58 20.52, 0 12.13 M0 36.39 C-0.25 28.68, -0.02 21.46, 0 12.13 M0 12.13 C1.1 5.63, 5.9 0.79, 12.13 0 M0 12.13 C1.03 4.36, 2.49 1.71, 12.13 0" stroke="#1e1e1e" stroke-width="2" fill="none"></path></g><g stroke-linecap="round" transform="translate(307.2273736862652 179.40646692019175) rotate(0 42.132860131571135 21.704806734445697)"><path d="M10.85 0 C38.84 3.37, 60.65 -1.48, 73.41 0 C77.8 -2.54, 84.52 4.75, 84.27 10.85 C82.16 13.04, 83.48 19.41, 84.27 32.56 C84.61 38.15, 81.91 42.8, 73.41 43.41 C56.71 40.7, 40.75 41.1, 10.85 43.41 C0.87 43.61, 2.99 40.28, 0 32.56 C3.13 30.47, 1.83 26.72, 0 10.85 C-1.67 1.2, 5.12 2.4, 10.85 0" stroke="none" stroke-width="0" fill="#ced4da"></path><path d="M10.85 0 C31.75 1.46, 49.6 -0.47, 73.41 0 M10.85 0 C30.93 0.25, 51.12 -0.41, 73.41 0 M73.41 0 C80.52 1.84, 83.6 3.89, 84.27 10.85 M73.41 0 C82.17 0.59, 82.83 3.03, 84.27 10.85 M84.27 10.85 C82.47 14.85, 84.85 21.59, 84.27 32.56 M84.27 10.85 C83.88 16.5, 84.18 21.76, 84.27 32.56 M84.27 32.56 C84.65 40.84, 82.57 43.42, 73.41 43.41 M84.27 32.56 C84.23 39.13, 80.86 42.81, 73.41 43.41 M73.41 43.41 C58.39 44.17, 44.97 42.87, 10.85 43.41 M73.41 43.41 C57.27 43.37, 40.52 43.88, 10.85 43.41 M10.85 43.41 C3.84 43.37, -1.16 39.13, 0 32.56 M10.85 43.41 C3.82 45.2, -1.54 37.57, 0 32.56 M0 32.56 C0.7 26.23, -1.75 21.21, 0 10.85 M0 32.56 C0.78 24.11, 0.57 16.34, 0 10.85 M0 10.85 C-1.95 3.17, 3.1 0.47, 10.85 0 M0 10.85 C-2.17 1.75, 4.9 -0.03, 10.85 0" stroke="#1e1e1e" stroke-width="2" fill="none"></path></g><g stroke-linecap="round" transform="translate(292.75750252996795 220.26257371444257) rotate(0 57.4539001794152 13.618702264750283)"><path d="M6.81 0 C43.54 0.7, 81.83 -2.11, 108.1 0 C115.26 -2.34, 117.42 1.81, 114.91 6.81 C116.82 11.19, 113.82 13.76, 114.91 20.43 C112.55 23.82, 116.04 24.58, 108.1 27.24 C74.27 24.72, 38.56 29.52, 6.81 27.24 C-0.73 26.9, 2.57 25.48, 0 20.43 C-2.51 14.75, 1.67 10.77, 0 6.81 C-0.51 2.05, 1.34 -2.1, 6.81 0" stroke="none" stroke-width="0" fill="#ced4da"></path><path d="M6.81 0 C30.43 -0.23, 56.72 1.72, 108.1 0 M6.81 0 C46.22 0.88, 86.62 0.01, 108.1 0 M108.1 0 C113.73 -0.55, 115.03 3.88, 114.91 6.81 M108.1 0 C112.19 -1.59, 113.16 3.93, 114.91 6.81 M114.91 6.81 C115.53 11.14, 115.13 18.38, 114.91 20.43 M114.91 6.81 C114.32 10.77, 114.87 13.1, 114.91 20.43 M114.91 20.43 C116.28 24.95, 114.43 27.59, 108.1 27.24 M114.91 20.43 C113.35 25.23, 112.2 29.32, 108.1 27.24 M108.1 27.24 C84.31 28.89, 62.27 28.1, 6.81 27.24 M108.1 27.24 C86.73 25.82, 63.6 26.81, 6.81 27.24 M6.81 27.24 C1.69 28.02, -1.77 26.22, 0 20.43 M6.81 27.24 C4.22 29.11, -2.02 24.22, 0 20.43 M0 20.43 C0.84 17.65, 0.81 13.31, 0 6.81 M0 20.43 C-0.14 14.87, 0.27 9.01, 0 6.81 M0 6.81 C-0.1 3.09, 3.1 0.51, 6.81 0 M0 6.81 C-1.26 2.57, 1.44 0.88, 6.81 0" stroke="#1e1e1e" stroke-width="2" fill="none"></path></g><g stroke-linecap="round" transform="translate(312.33438703554634 247.49997824394336) rotate(0 37.02584678228982 51.495717938586864)"><path d="M1.53 1.54 L72.72 0.43 L72.74 101.06 L-0.21 103.36" stroke="none" stroke-width="0" fill="#ced4da"></path><path d="M0 0 C20.51 1.47, 42.06 1.17, 74.05 0 M0 0 C18.53 0.97, 36.53 -0.26, 74.05 0 M74.05 0 C72.28 30.09, 72.68 58.67, 74.05 102.99 M74.05 0 C73.16 30.44, 73.94 58.79, 74.05 102.99 M74.05 102.99 C53.36 101.28, 29.94 102.04, 0 102.99 M74.05 102.99 C57.44 103.71, 38.87 102.63, 0 102.99 M0 102.99 C0.91 65.53, -2.09 25.68, 0 0 M0 102.99 C0.08 64.27, -0.44 26.92, 0 0" stroke="#1e1e1e" stroke-width="2" fill="none"></path></g><g stroke-linecap="round"><g transform="translate(310.6320492524526 350.4914141211171) rotate(0 37.877015673836695 10.639611144336158)" fill-rule="evenodd"><path d="M-0.8 -1.49 L5.56 21.18 L62.79 19.41 L75.3 1.28 L1.41 -1.3" stroke="none" stroke-width="0" fill="#868e96" fill-rule="evenodd"></path><path d="M0 0 C3.66 6.94, 4.64 14.6, 6.81 21.28 M0 0 C2.54 5.07, 3.62 9.44, 6.81 21.28 M6.81 21.28 C21.4 20.91, 37.8 20.02, 62.99 20.43 M6.81 21.28 C21.77 22.45, 37.11 21.03, 62.99 20.43 M62.99 20.43 C68.37 14.22, 71.52 6.01, 75.75 0.85 M62.99 20.43 C64.65 16.67, 67.14 13.26, 75.75 0.85 M75.75 0.85 C56.74 1.24, 42.26 -0.51, 0 0 M75.75 0.85 C55.86 0.95, 36.69 1.14, 0 0 M0 0 C0 0, 0 0, 0 0 M0 0 C0 0, 0 0, 0 0" stroke="#1e1e1e" stroke-width="2" fill="none"></path></g></g><mask></mask><g stroke-linecap="round"><g transform="translate(337.3496108925301 464.09107856028777) rotate(0 8.511688915468937 16.597793385164323)" fill-rule="evenodd"><path d="M-0.58 -0.05 L1.71 36.01 L16.82 12.04 L16.22 -3.88 L-0.86 -0.98" stroke="none" stroke-width="0" fill="#ced4da" fill-rule="evenodd"></path><path d="M0 0 C0.2 14.08, 0.08 25.79, 0.85 36.6 M0 0 C0.12 7.91, -0.05 16, 0.85 36.6 M0.85 36.6 C6.64 28.27, 10.31 22.67, 17.02 12.77 M0.85 36.6 C5.84 28.76, 10.78 21.32, 17.02 12.77 M17.02 12.77 C17.28 8.52, 17.21 4.53, 17.02 -3.4 M17.02 12.77 C17.33 7, 16.84 0.48, 17.02 -3.4 M17.02 -3.4 C13.14 -1.9, 8.96 -1.78, 0 0 M17.02 -3.4 C13.2 -3.07, 9.62 -2.32, 0 0 M0 0 C0 0, 0 0, 0 0 M0 0 C0 0, 0 0, 0 0" stroke="#1e1e1e" stroke-width="2" fill="none"></path></g></g><mask></mask><g stroke-linecap="round" transform="translate(322.5484137341091 394.7521964815553) rotate(0 22.981560071766296 38.30260011961008)"><path d="M13.65 4.1 C17.71 0.37, 23.18 0.02, 27.77 1.95 C32.37 3.88, 38.2 9.11, 41.2 15.7 C44.2 22.28, 46.21 33.19, 45.78 41.45 C45.34 49.72, 42.08 59.4, 38.59 65.28 C35.1 71.15, 29.52 75.92, 24.84 76.69 C20.15 77.47, 14.43 74.64, 10.48 69.93 C6.52 65.22, 2.41 56.18, 1.11 48.44 C-0.2 40.7, 0.38 31.15, 2.64 23.49 C4.9 15.84, 12.59 6.08, 14.66 2.51 C16.73 -1.07, 14.95 1.42, 15.05 2.02 M12.5 3 C16.83 -0.69, 25.41 -2.07, 30.14 0.37 C34.87 2.8, 38.36 10.83, 40.88 17.61 C43.41 24.39, 45.87 32.99, 45.31 41.06 C44.75 49.14, 41.08 60.32, 37.51 66.07 C33.93 71.83, 28.52 75.05, 23.87 75.59 C19.22 76.13, 13.33 73.91, 9.6 69.31 C5.88 64.71, 2.82 56.07, 1.52 47.98 C0.23 39.9, -0.44 28.2, 1.81 20.82 C4.07 13.44, 12.84 6.51, 15.06 3.69 C17.29 0.87, 15.03 3.54, 15.17 3.89" stroke="none" stroke-width="0" fill="#868e96"></path><path d="M25.62 -0.35 C30.44 -0.17, 36.18 5.41, 39.49 11.13 C42.8 16.86, 44.93 25.9, 45.5 33.98 C46.06 42.07, 45.63 52.7, 42.9 59.63 C40.17 66.56, 34.12 73.35, 29.1 75.55 C24.08 77.74, 17.11 76.15, 12.78 72.78 C8.45 69.41, 5.19 62.51, 3.12 55.34 C1.05 48.16, -0.68 37.79, 0.35 29.73 C1.38 21.68, 4.17 11.45, 9.3 7.02 C14.42 2.6, 26.68 2.94, 31.1 3.19 C35.52 3.45, 36.05 8.24, 35.8 8.54 M27.95 1.2 C32.45 2.27, 36.36 8.48, 39.61 14.47 C42.86 20.46, 47.44 28.87, 47.45 37.12 C47.46 45.38, 43.28 57.42, 39.69 63.99 C36.1 70.56, 30.54 75.15, 25.88 76.53 C21.23 77.9, 15.7 76.23, 11.77 72.24 C7.84 68.24, 4.06 60.45, 2.32 52.56 C0.57 44.67, -0.33 32.95, 1.3 24.91 C2.94 16.87, 8.05 8.18, 12.11 4.3 C16.18 0.42, 23.21 2.18, 25.7 1.63 C28.19 1.08, 26.87 0.61, 27.05 1.03" stroke="#1e1e1e" stroke-width="2" fill="none"></path></g><g stroke-linecap="round"><g transform="translate(321.6959864171032 373.89854717603157) rotate(0 24.222448283499034 32.556917804736145)" fill-rule="evenodd"><path d="M1.74 1.74 L-1.32 65.94 L49.86 66.57 L47.58 -1.21 L0.37 1.41" stroke="none" stroke-width="0" fill="#ced4da" fill-rule="evenodd"></path><path d="M0 0 C1.41 15.23, 1.28 34.55, -0.85 66.39 M0 0 C-0.3 16.93, 0.01 33.47, -0.85 66.39 M-0.85 66.39 C13.85 67.27, 28.05 67.32, 49.29 66.39 M-0.85 66.39 C13.35 65.62, 27.11 65.12, 49.29 66.39 M49.29 66.39 C48.04 45.11, 48.08 24.02, 49.29 -1.28 M49.29 66.39 C49.92 44.12, 48.02 22.97, 49.29 -1.28 M49.29 -1.28 C33.77 -0.32, 15.08 -0.62, 0 0 M49.29 -1.28 C35.59 -0.55, 19.75 -0.29, 0 0 M0 0 C0 0, 0 0, 0 0 M0 0 C0 0, 0 0, 0 0" stroke="#1e1e1e" stroke-width="2" fill="none"></path></g></g><mask></mask></svg>