<svg version="1.1" xmlns="http://www.w3.org/2000/svg" viewBox="0 0 632.8356602097938 632.8356602097936" width="632.8356602097938" height="632.8356602097936">
  <!-- svg-source:excalidraw -->
  
  <defs>
    <style class="style-fonts">
      @font-face {
        font-family: "Virgil";
        src: url("https://excalidraw.com/Virgil.woff2");
      }
      @font-face {
        font-family: "Cascadia";
        src: url("https://excalidraw.com/Cascadia.woff2");
      }
      @font-face {
        font-family: "Assistant";
        src: url("https://excalidraw.com/Assistant-Regular.woff2");
      }
    </style>
    
  </defs>
  <g stroke-linecap="round" transform="translate(10.000000000000227 10) rotate(0 306.4178301048968 306.4178301048968)"><path d="M442.69 31.98 C464.22 37.06, 481.49 53.6, 498.88 67.79 C516.27 81.99, 532.89 98.99, 547.02 117.14 C561.14 135.29, 573.77 156.17, 583.62 176.69 C593.47 197.21, 601.08 218.28, 606.1 240.25 C611.12 262.22, 614.14 285.59, 613.74 308.53 C613.34 331.48, 609.01 355.64, 603.7 377.93 C598.39 400.21, 591.69 421.98, 581.88 442.23 C572.08 462.48, 559.4 481.9, 544.87 499.44 C530.35 516.99, 512.74 533.57, 494.75 547.51 C476.76 561.44, 457.56 573.45, 436.92 583.05 C416.27 592.65, 393.03 599.98, 370.88 605.1 C348.73 610.23, 326.44 613.98, 304.01 613.78 C281.57 613.59, 258.61 609.27, 236.27 603.93 C213.93 598.59, 190.6 591.68, 169.97 581.75 C149.35 571.82, 129.82 558.93, 112.51 544.35 C95.2 529.78, 80.09 512.17, 66.09 494.3 C52.08 476.43, 38.36 457.54, 28.48 437.12 C18.61 416.69, 11.51 393.93, 6.85 371.75 C2.19 349.57, 0.19 326.8, 0.52 304.02 C0.86 281.23, 3.59 257.26, 8.86 235.03 C14.13 212.81, 22.03 190.85, 32.14 170.65 C42.24 150.46, 55.2 131.6, 69.49 113.86 C83.77 96.12, 100.1 78.48, 117.85 64.22 C135.6 49.97, 155.38 37.83, 175.98 28.35 C196.59 18.86, 219.33 12.17, 241.47 7.32 C263.61 2.47, 286.31 -0.99, 308.8 -0.75 C331.3 -0.51, 352.01 2.28, 376.43 8.76 C400.85 15.25, 440.85 31.26, 455.33 38.15 C469.82 45.05, 465.99 45.81, 463.35 50.13 M331.07 2.03 C352.85 -0.92, 376.5 8.84, 398.18 15.44 C419.86 22.04, 441.37 30.31, 461.14 41.64 C480.92 52.97, 500.28 67.5, 516.83 83.43 C533.39 99.37, 548.09 118.47, 560.48 137.24 C572.87 156.02, 582.94 175.11, 591.18 196.08 C599.42 217.04, 606.28 240.16, 609.92 263.03 C613.57 285.89, 614.83 310.67, 613.03 333.26 C611.24 355.85, 606.05 377.05, 599.13 398.58 C592.2 420.1, 583.02 442.61, 571.48 462.4 C559.95 482.2, 545.82 501.05, 529.93 517.35 C514.04 533.66, 495.4 547.54, 476.15 560.24 C456.91 572.94, 435.8 585.18, 414.46 593.54 C393.11 601.91, 370.51 607.5, 348.07 610.43 C325.64 613.36, 302.11 613.39, 279.85 611.15 C257.59 608.9, 236.1 603.57, 214.51 596.96 C192.93 590.34, 170.03 582.88, 150.36 571.47 C130.69 560.07, 112.79 544.2, 96.49 528.52 C80.18 512.83, 65.29 496.2, 52.53 477.38 C39.77 458.55, 28.23 437.12, 19.91 415.58 C11.59 394.04, 5.85 370.53, 2.61 348.13 C-0.62 325.73, -1.26 303.49, 0.5 281.19 C2.26 258.88, 6.2 235.81, 13.17 214.27 C20.14 192.74, 30.56 171.66, 42.31 151.97 C54.06 132.27, 68.14 112.85, 83.66 96.09 C99.18 79.32, 116.66 63.94, 135.45 51.38 C154.24 38.83, 175.27 29, 196.4 20.78 C217.53 12.57, 239.52 5.34, 262.24 2.11 C284.97 -1.12, 321.22 0.51, 332.77 1.39 C344.33 2.27, 332.26 2.55, 331.57 7.4" stroke="none" stroke-width="0" fill="#1e1e1e"></path><path d="M240.42 7.48 C260.19 -1.95, 285.03 -0.34, 307.85 -0.37 C330.67 -0.41, 355.09 2.07, 377.34 7.26 C399.59 12.45, 420.91 20.44, 441.36 30.78 C461.81 41.11, 482.23 54.69, 500.03 69.26 C517.84 83.82, 534.29 100.37, 548.2 118.14 C562.1 135.92, 573.96 155.64, 583.47 175.92 C592.97 196.2, 600.37 217.72, 605.24 239.83 C610.12 261.94, 612.95 285.86, 612.73 308.59 C612.5 331.32, 609.11 354.18, 603.87 376.19 C598.64 398.2, 591.08 420.06, 581.31 440.65 C571.54 461.24, 559.58 481.88, 545.25 499.74 C530.91 517.59, 513.29 533.85, 495.29 547.79 C477.3 561.74, 457.65 573.68, 437.28 583.42 C416.91 593.16, 395.41 601.38, 373.07 606.22 C350.74 611.06, 326.28 612.88, 303.27 612.47 C280.26 612.06, 257.12 609.07, 235.02 603.78 C212.92 598.48, 190.92 590.44, 170.69 580.69 C150.46 570.94, 131.27 559.28, 113.65 545.26 C96.02 531.25, 79.04 514.59, 64.97 496.61 C50.9 478.63, 38.85 457.94, 29.23 437.37 C19.62 416.81, 12.14 395.58, 7.28 373.24 C2.42 350.9, 0.03 326.27, 0.04 303.35 C0.06 280.43, 2.06 257.67, 7.4 235.73 C12.73 213.8, 21.86 192.13, 32.03 171.76 C42.19 151.39, 54.29 131.1, 68.39 113.52 C82.49 95.94, 98.77 80.22, 116.65 66.29 C134.53 52.36, 153.92 39.97, 175.69 29.96 C197.46 19.96, 234.3 9.35, 247.29 6.24 C260.27 3.14, 252.69 6.44, 253.57 11.32 M180.29 27.04 C198.14 13.7, 223.83 10.46, 246.37 5.96 C268.91 1.46, 292.6 -0.8, 315.52 0.05 C338.44 0.91, 362.25 5.57, 383.87 11.06 C405.5 16.55, 425.44 22.66, 445.26 33 C465.07 43.33, 485.01 58.06, 502.76 73.07 C520.51 88.08, 537.97 105.2, 551.76 123.08 C565.56 140.97, 576.13 159.84, 585.52 180.39 C594.91 200.95, 603.53 224.04, 608.11 246.4 C612.68 268.77, 614.01 291.65, 612.95 314.56 C611.89 337.47, 607.6 361.81, 601.75 383.88 C595.91 405.96, 587.96 427.03, 577.88 446.99 C567.8 466.96, 555.8 486.19, 541.26 503.65 C526.73 521.11, 509.13 538.05, 490.7 551.76 C472.26 565.47, 451.17 576.81, 430.65 585.89 C410.12 594.97, 389.56 601.54, 367.52 606.24 C345.48 610.94, 321.11 614.68, 298.4 614.1 C275.7 613.52, 253.56 608.46, 231.29 602.74 C209.01 597.03, 185.27 590.24, 164.78 579.81 C144.29 569.38, 125.47 554.94, 108.34 540.17 C91.2 525.39, 75.45 509.28, 61.99 491.15 C48.53 473.02, 36.82 452.08, 27.59 431.38 C18.35 410.69, 11.29 389, 6.57 366.98 C1.85 344.96, -1.1 322.27, -0.74 299.28 C-0.37 276.28, 2.93 251.38, 8.75 229 C14.57 206.62, 23.68 184.76, 34.19 164.98 C44.69 145.2, 56.95 127.47, 71.78 110.33 C86.62 93.19, 104.91 75.91, 123.21 62.13 C141.51 48.35, 171.59 32.58, 181.59 27.67 C191.6 22.77, 181.39 28.34, 183.22 32.7" stroke="#1e1e1e" stroke-width="2" fill="none"></path></g><g stroke-linecap="round" transform="translate(36.97076255202046 32.47563546001686) rotate(0 280.19625540154357 280.1962554015437)"><path d="M344.01 7.84 C365 8, 385.84 19.71, 405.14 29.28 C424.45 38.86, 443.35 51.28, 459.87 65.29 C476.39 79.29, 491.2 95.98, 504.27 113.31 C517.33 130.65, 529.7 149.78, 538.27 169.29 C546.83 188.8, 552.18 209.14, 555.66 230.37 C559.14 251.6, 560.37 275.06, 559.13 296.67 C557.88 318.28, 554.01 339.51, 548.17 360.04 C542.32 380.58, 534.8 401.24, 524.05 419.88 C513.3 438.52, 498.61 456.22, 483.66 471.87 C468.71 487.53, 452.34 501.74, 434.35 513.8 C416.36 525.87, 396.04 536.83, 375.71 544.25 C355.38 551.68, 333.71 555.99, 312.37 558.35 C291.03 560.72, 268.99 560.88, 247.68 558.44 C226.37 556, 204.64 550.99, 184.49 543.72 C164.35 536.45, 144.81 526.54, 126.84 514.82 C108.86 503.1, 91.54 489.09, 76.65 473.38 C61.77 457.67, 48.4 439.38, 37.54 420.56 C26.68 401.74, 17.63 381.12, 11.5 360.47 C5.37 339.81, 1.91 318.14, 0.75 296.65 C-0.41 275.16, 0.82 252.5, 4.53 231.5 C8.24 210.5, 14.73 190.5, 23 170.64 C31.27 150.79, 41.36 129.81, 54.14 112.38 C66.93 94.95, 83.03 79.86, 99.73 66.06 C116.42 52.25, 135.05 39.27, 154.3 29.53 C173.56 19.79, 194.33 12.6, 215.25 7.6 C236.17 2.6, 255.78 -1.09, 279.82 -0.48 C303.86 0.12, 344.29 7.55, 359.51 11.25 C374.73 14.94, 372.72 17.11, 371.12 21.69 M271.42 -0.07 C291.73 -5.18, 314.77 0.78, 335.72 5.06 C356.67 9.35, 377.5 16.73, 397.12 25.64 C416.75 34.54, 436.7 45.07, 453.45 58.5 C470.2 71.93, 484.5 89.45, 497.63 106.21 C510.76 122.97, 522.58 140, 532.23 159.04 C541.88 178.07, 550.74 199.26, 555.53 220.43 C560.32 241.59, 561.87 264.22, 560.97 286.02 C560.07 307.82, 555.44 330.35, 550.13 351.21 C544.82 372.07, 538.89 392.14, 529.11 411.17 C519.33 430.2, 506.06 449.14, 491.43 465.41 C476.8 481.68, 458.97 496.52, 441.32 508.81 C423.67 521.1, 405.15 531.1, 385.52 539.14 C365.89 547.18, 344.89 553.82, 323.52 557.04 C302.16 560.26, 278.97 560.2, 257.31 558.46 C235.64 556.72, 213.88 553.31, 193.54 546.61 C173.2 539.9, 153.5 529.59, 135.27 518.25 C117.04 506.92, 99.34 493.73, 84.16 478.62 C68.98 463.51, 55.73 445.45, 44.17 427.6 C32.62 409.76, 22.03 391.75, 14.83 371.56 C7.64 351.38, 2.94 328.14, 0.99 306.51 C-0.96 284.88, 0.26 263.32, 3.14 241.78 C6.02 220.24, 10.75 197.39, 18.26 177.26 C25.77 157.13, 35.98 138.47, 48.22 121 C60.46 103.52, 75.28 86.91, 91.7 72.41 C108.11 57.91, 127.72 44.48, 146.69 33.99 C165.66 23.51, 185.07 15.04, 205.51 9.49 C225.94 3.94, 258.64 1.26, 269.31 0.68 C279.99 0.11, 269.27 1.57, 269.56 6.02" stroke="none" stroke-width="0" fill="#fab005"></path><path d="M277.51 0.25 C297.89 -4.42, 321.81 1.98, 342.92 6.67 C364.02 11.35, 384.67 18.85, 404.14 28.36 C423.6 37.87, 443.09 49.86, 459.7 63.71 C476.31 77.57, 491.03 94.18, 503.81 111.48 C516.6 128.78, 527.68 147.68, 536.41 167.51 C545.15 187.33, 552.17 209.27, 556.22 230.42 C560.28 251.57, 561.91 272.98, 560.75 294.42 C559.58 315.86, 555.26 338.45, 549.23 359.04 C543.2 379.62, 535.08 399.32, 524.57 417.92 C514.07 436.51, 500.98 454.71, 486.21 470.61 C471.44 486.51, 453.87 501.31, 435.96 513.32 C418.05 525.33, 399.01 535.15, 378.77 542.67 C358.54 550.18, 336.21 555.67, 314.55 558.41 C292.89 561.14, 270.17 561.37, 248.84 559.09 C227.51 556.81, 206.58 551.85, 186.58 544.72 C166.57 537.6, 146.84 528.03, 128.81 516.34 C110.77 504.65, 93.4 490.44, 78.39 474.59 C63.37 458.73, 49.87 440.04, 38.74 421.19 C27.61 402.34, 18.08 382.04, 11.6 361.47 C5.12 340.9, 1.23 319.03, -0.16 297.75 C-1.55 276.48, -0.35 255.06, 3.24 233.81 C6.84 212.57, 13.02 190.07, 21.43 170.27 C29.85 150.46, 40.95 132.28, 53.75 114.98 C66.56 97.69, 81.6 80.59, 98.24 66.5 C114.88 52.4, 134.27 40.02, 153.62 30.43 C172.97 20.84, 190.93 14.1, 214.34 8.96 C237.74 3.83, 278.24 -0.08, 294.05 -0.37 C309.85 -0.67, 309.59 2.29, 309.17 7.2 M183.74 17.34 C201.33 6.08, 224.38 5.62, 245.67 3.23 C266.97 0.84, 290.25 0.91, 311.49 3.01 C332.74 5.12, 352.98 9.09, 373.13 15.85 C393.27 22.61, 414.14 31.62, 432.35 43.58 C450.56 55.54, 467.62 71.8, 482.39 87.59 C497.15 103.37, 510.22 119.7, 520.94 138.27 C531.67 156.85, 540.14 178.62, 546.75 199.03 C553.36 219.44, 559.09 239.61, 560.58 260.74 C562.08 281.87, 559.67 304.49, 555.72 325.83 C551.76 347.17, 544.88 368.89, 536.84 388.79 C528.8 408.69, 519.98 427.79, 507.47 445.24 C494.95 462.68, 478.36 479.59, 461.74 493.46 C445.12 507.32, 426.82 518.62, 407.74 528.43 C388.67 538.24, 368.39 547.14, 347.28 552.31 C326.16 557.47, 302.53 559.35, 281.07 559.4 C259.6 559.45, 239.37 557.3, 218.49 552.61 C197.61 547.92, 175.41 540.78, 155.78 531.27 C136.16 521.75, 117.21 509.22, 100.73 495.53 C84.25 481.84, 69.62 466.44, 56.89 449.13 C44.15 431.82, 32.99 411.48, 24.31 391.67 C15.63 371.87, 8.9 351.25, 4.81 330.3 C0.72 309.35, -1.5 287.34, -0.23 265.97 C1.04 244.59, 6.26 222.62, 12.44 202.04 C18.62 181.47, 26.39 161.42, 36.85 142.54 C47.32 123.65, 60.72 104.75, 75.23 88.73 C89.74 72.71, 106.14 58.45, 123.94 46.41 C141.74 34.38, 171.85 20.4, 182.02 16.53 C192.19 12.65, 183.29 18.76, 184.95 23.16" stroke="#1e1e1e" stroke-width="2" fill="none"></path></g><g stroke-linecap="round"><g transform="translate(414.5367451019706 118.09500445075986) rotate(29.19999402168023 18.07945827906292 -22.512503338954645)" fill-rule="evenodd"><path d="M1.28 -1.64 C2.14 -9.14, -2.39 -39.91, 3.05 -46.76 C8.5 -53.61, 28.73 -50.38, 33.93 -42.72 C39.14 -35.06, 39.54 -7.77, 34.27 -0.79 C29 6.2, 8.21 -1.22, 2.31 -0.8" stroke="none" stroke-width="0" fill="#ced4da" fill-rule="evenodd"></path><path d="M-0.06 0.67 C0.52 -6.81, -2.2 -37.6, 3.29 -44.84 C8.79 -52.09, 27.27 -50.43, 32.89 -42.78 C38.52 -35.13, 42.35 -5.95, 37.05 1.05 C31.75 8.04, 7.12 -0.54, 1.07 -0.81 M-1.55 -0.02 C-1.06 -7.29, -2.95 -36.22, 2.69 -43.21 C8.33 -50.2, 26.43 -49.02, 32.28 -41.98 C38.13 -34.94, 43.12 -7.81, 37.77 -0.96 C32.41 5.9, 6.63 -1.29, 0.17 -0.85" stroke="#1e1e1e" stroke-width="2" fill="none"></path></g></g><mask></mask><g stroke-linecap="round" transform="translate(362.9702610219838 163.0077019104529) rotate(29.19999402168023 31.86437006426206 7.267312470796611)"><path d="M3.63 0 C20.45 2.6, 41.02 2.25, 60.1 0 C62.51 0.19, 64.22 -0.9, 63.73 3.63 C62.82 7.36, 63.62 9.45, 63.73 10.9 C65.37 12.2, 59.92 14.95, 60.1 14.53 C42.51 12.99, 24.46 12.96, 3.63 14.53 C-0.4 12.47, -2.08 11.5, 0 10.9 C0.52 8.87, 0.44 8.6, 0 3.63 C0.74 3.03, 2.05 -1.33, 3.63 0" stroke="none" stroke-width="0" fill="#ced4da"></path><path d="M3.63 0 C16.02 -0.27, 26.82 0.05, 60.1 0 M3.63 0 C25.02 0.27, 45.57 0.19, 60.1 0 M60.1 0 C62.63 0.05, 63.64 0.96, 63.73 3.63 M60.1 0 C62.9 -0.53, 63.43 1.22, 63.73 3.63 M63.73 3.63 C63.66 5.56, 63.97 7.16, 63.73 10.9 M63.73 3.63 C63.64 5.43, 63.69 6.98, 63.73 10.9 M63.73 10.9 C63.96 14.05, 61.87 15.12, 60.1 14.53 M63.73 10.9 C64.57 12.44, 61.45 15.55, 60.1 14.53 M60.1 14.53 C42.39 14.2, 22.98 14.06, 3.63 14.53 M60.1 14.53 C39.32 14.62, 19.76 13.83, 3.63 14.53 M3.63 14.53 C0.82 14.26, 0.43 14.13, 0 10.9 M3.63 14.53 C0.35 13.67, -0.98 14.36, 0 10.9 M0 10.9 C-0.17 8.14, 0.23 6.3, 0 3.63 M0 10.9 C0 9.33, 0.09 7.67, 0 3.63 M0 3.63 C-0.8 1.1, 0.69 -0.1, 3.63 0 M0 3.63 C-0.45 0.87, 0.12 0.91, 3.63 0" stroke="#1e1e1e" stroke-width="2" fill="none"></path></g><g stroke-linecap="round" transform="translate(339.27429643054666 109.51923445481634) rotate(29.19999402168023 74.90922085282693 31.864370064262204)"><path d="M15.93 0 C61.24 -2.4, 108.24 1.02, 133.89 0 C147.72 1.16, 147.25 8.37, 149.82 15.93 C150.39 23.77, 151.75 28.36, 149.82 47.8 C151.03 61.86, 144.74 60.18, 133.89 63.73 C106.78 61.91, 72.47 61.93, 15.93 63.73 C6.96 62.45, -2.98 60.5, 0 47.8 C3.51 36.15, 2.16 20.62, 0 15.93 C-0.63 7.79, 4.95 0.5, 15.93 0" stroke="none" stroke-width="0" fill="#343a40"></path><path d="M15.93 0 C45.28 1.35, 75.31 -0.27, 133.89 0 M15.93 0 C60.86 0.18, 107.16 -0.65, 133.89 0 M133.89 0 C145.65 -1.21, 151.16 7.03, 149.82 15.93 M133.89 0 C144.4 -1.15, 148.67 3.36, 149.82 15.93 M149.82 15.93 C148.54 23.01, 149.62 31.09, 149.82 47.8 M149.82 15.93 C149.02 24.06, 149.45 32.06, 149.82 47.8 M149.82 47.8 C148.83 57.3, 144.75 63.25, 133.89 63.73 M149.82 47.8 C149.3 57.73, 144.36 65.41, 133.89 63.73 M133.89 63.73 C108.69 64.8, 82.61 63.45, 15.93 63.73 M133.89 63.73 C99.71 63.12, 67.47 62.52, 15.93 63.73 M15.93 63.73 C6.17 63.14, 1.36 56.81, 0 47.8 M15.93 63.73 C5.21 65.18, 0.23 56.35, 0 47.8 M0 47.8 C-0.32 36.02, 1.54 27.24, 0 15.93 M0 47.8 C-0.33 37.83, -0.09 28.34, 0 15.93 M0 15.93 C1.1 6.89, 7.17 0.79, 15.93 0 M0 15.93 C1.03 5.63, 3.76 1.71, 15.93 0" stroke="#1e1e1e" stroke-width="2" fill="none"></path></g><g stroke-linecap="round" transform="translate(324.1037069132567 171.58930606755212) rotate(29.19999402168023 55.34337958529761 28.51022584697145)"><path d="M14.26 0 C50.02 3.33, 79.6 -1.52, 96.43 0 C103.09 -2.54, 110.94 5.88, 110.69 14.26 C108.6 17.96, 109.92 25.86, 110.69 42.77 C111.03 50.63, 107.2 56.41, 96.43 57.02 C74.58 54.35, 53.47 54.76, 14.26 57.02 C2.01 57.23, 2.99 52.76, 0 42.77 C3.2 39.28, 1.91 34.13, 0 14.26 C-1.67 2.33, 6.26 2.4, 14.26 0" stroke="none" stroke-width="0" fill="#ced4da"></path><path d="M14.26 0 C41.53 1.52, 65.76 -0.41, 96.43 0 M14.26 0 C40.63 0.44, 67.11 -0.22, 96.43 0 M96.43 0 C105.8 1.84, 110.02 5.03, 110.69 14.26 M96.43 0 C107.45 0.59, 109.25 4.17, 110.69 14.26 M110.69 14.26 C108.89 19.89, 111.27 28.27, 110.69 42.77 M110.69 14.26 C110.29 21.61, 110.59 28.57, 110.69 42.77 M110.69 42.77 C111.07 53.32, 107.86 57.03, 96.43 57.02 M110.69 42.77 C110.65 51.61, 106.14 56.42, 96.43 57.02 M96.43 57.02 C76.99 57.89, 59.16 56.59, 14.26 57.02 M96.43 57.02 C75.12 56.85, 53.2 57.36, 14.26 57.02 M14.26 57.02 C4.97 56.99, -1.16 51.61, 0 42.77 M14.26 57.02 C4.95 58.81, -1.54 50.05, 0 42.77 M0 42.77 C0.77 34.74, -1.68 28.03, 0 14.26 M0 42.77 C0.82 31.88, 0.6 21.66, 0 14.26 M0 14.26 C-1.95 4.3, 4.24 0.47, 14.26 0 M0 14.26 C-2.17 2.88, 6.04 -0.03, 14.26 0" stroke="#1e1e1e" stroke-width="2" fill="none"></path></g><g stroke-linecap="round" transform="translate(283.95496819951904 220.33101596259803) rotate(29.19999402168023 75.46824488904224 17.88876915888406)"><path d="M8.94 0 C57.44 1, 107.5 -1.81, 141.99 0 C150.57 -2.34, 153.45 2.52, 150.94 8.94 C153.45 14.7, 149.51 18.07, 150.94 26.83 C148.57 31.65, 151.36 33.12, 141.99 35.78 C96.95 32.87, 50.02 37.67, 8.94 35.78 C-0.02 35.44, 2.57 33.31, 0 26.83 C-3.3 19.38, 2.19 14.15, 0 8.94 C-0.51 2.76, 2.05 -2.1, 8.94 0" stroke="none" stroke-width="0" fill="#ced4da"></path><path d="M8.94 0 C40.55 -0.21, 74.82 1.74, 141.99 0 M8.94 0 C60.72 1.04, 113.49 0.18, 141.99 0 M141.99 0 C149.04 -0.55, 151.06 4.59, 150.94 8.94 M141.99 0 C147.5 -1.59, 149.19 4.64, 150.94 8.94 M150.94 8.94 C151.75 14.64, 151.23 24.14, 150.94 26.83 M150.94 8.94 C150.17 14.15, 150.88 17.21, 150.94 26.83 M150.94 26.83 C152.31 32.78, 149.75 36.13, 141.99 35.78 M150.94 26.83 C149.38 33.06, 147.51 37.86, 141.99 35.78 M141.99 35.78 C110.86 37.41, 81.48 36.62, 8.94 35.78 M141.99 35.78 C113.72 34.14, 83.68 35.14, 8.94 35.78 M8.94 35.78 C2.4 36.56, -1.77 34.05, 0 26.83 M8.94 35.78 C4.93 37.65, -2.02 32.05, 0 26.83 M0 26.83 C1.1 23.18, 1.07 17.49, 0 8.94 M0 26.83 C-0.18 19.53, 0.36 11.83, 0 8.94 M0 8.94 C-0.1 3.8, 3.82 0.51, 8.94 0 M0 8.94 C-1.26 3.29, 2.16 0.88, 8.94 0" stroke="#1e1e1e" stroke-width="2" fill="none"></path></g><g stroke-linecap="round" transform="translate(268.08519363433834 244.69404735292716) rotate(29.19999402168023 48.63509115071611 67.64190838203024)"><path d="M1.53 1.54 L95.94 0.43 L95.96 133.35 L-0.21 135.65" stroke="none" stroke-width="0" fill="#ced4da"></path><path d="M0 0 C26.98 1.68, 54.98 1.37, 97.27 0 M0 0 C24.22 1.05, 47.91 -0.17, 97.27 0 M97.27 0 C95.48 39.07, 95.88 76.63, 97.27 135.28 M97.27 0 C96.22 39.71, 97 77.33, 97.27 135.28 M97.27 135.28 C69.49 133.5, 39 134.26, 0 135.28 M97.27 135.28 C75.27 135.92, 51.32 134.85, 0 135.28 M0 135.28 C0.86 85.83, -2.13 33.99, 0 0 M0 135.28 C0.13 84.51, -0.4 35.1, 0 0" stroke="#1e1e1e" stroke-width="2" fill="none"></path></g><g stroke-linecap="round"><g transform="translate(226.0615331060751 369.031522800877) rotate(29.19999402168023 49.75313922314638 13.9756009053782)" fill-rule="evenodd"><path d="M-0.8 -1.49 L7.69 27.85 L82.54 25.81 L99.06 1.55 L1.41 -1.3" stroke="none" stroke-width="0" fill="#868e96" fill-rule="evenodd"></path><path d="M0 0 C4.25 8.95, 5.88 18.62, 8.94 27.95 M0 0 C3.06 6.69, 4.66 12.7, 8.94 27.95 M8.94 27.95 C28.58 27.42, 50.02 26.46, 82.74 26.83 M8.94 27.95 C28.81 29.22, 49.05 27.72, 82.74 26.83 M82.74 26.83 C89.44 18.51, 93.96 8.21, 99.51 1.12 M82.74 26.83 C85.21 21.82, 88.49 17.17, 99.51 1.12 M99.51 1.12 C75.15 1.54, 55.33 -0.27, 0 0 M99.51 1.12 C73.63 1.07, 48.48 1.19, 0 0 M0 0 C0 0, 0 0, 0 0 M0 0 C0 0, 0 0, 0 0" stroke="#1e1e1e" stroke-width="2" fill="none"></path></g></g><mask></mask><g stroke-linecap="round"><g transform="translate(185.06788338722436 496.72656437215807) rotate(29.19999402168023 11.180480724302583 21.80193741238992)" fill-rule="evenodd"><path d="M-1.17 -0.09 L2.84 46.89 L21.96 15.32 L20.75 -5.42 L-1.72 -1.96" stroke="none" stroke-width="0" fill="#ced4da" fill-rule="evenodd"></path><path d="M0 0 C0.07 18.97, -0.37 33.2, 1.12 48.08 M0 0 C0.12 10.36, -0.34 21.09, 1.12 48.08 M1.12 48.08 C9.22 36.48, 13.12 30.35, 22.36 16.77 M1.12 48.08 C7.66 37.41, 14.13 27.59, 22.36 16.77 M22.36 16.77 C23.01 11.03, 22.83 5.92, 22.36 -4.47 M22.36 16.77 C23.14 9.64, 21.91 0.66, 22.36 -4.47 M22.36 -4.47 C17.08 -1.77, 11.12 -2.23, 0 0 M22.36 -4.47 C17.02 -4.39, 12.22 -3.36, 0 0 M0 0 C0 0, 0 0, 0 0 M0 0 C0 0, 0 0, 0 0" stroke="#1e1e1e" stroke-width="2" fill="none"></path></g></g><mask></mask><g stroke-linecap="round" transform="translate(196.23268094188847 413.28436764087854) rotate(29.19999402168023 30.18729795561717 50.31216325936134)"><path d="M27.62 0.42 C32.69 -0.78, 39.62 2.46, 44.56 6.86 C49.51 11.26, 54.63 18.92, 57.28 26.83 C59.93 34.75, 60.91 45.16, 60.48 54.35 C60.05 63.53, 58.01 74.75, 54.7 81.92 C51.39 89.1, 45.99 94.63, 40.62 97.41 C35.25 100.19, 27.8 100.69, 22.46 98.63 C17.12 96.57, 12.36 91.5, 8.58 85.06 C4.79 78.62, 0.9 68.98, -0.24 59.99 C-1.39 51, -0.37 39.46, 1.72 31.13 C3.82 22.8, 7.48 15.34, 12.34 10.03 C17.19 4.71, 27.07 0.72, 30.85 -0.75 C34.63 -2.21, 35.06 0.4, 35.01 1.22 M31.45 0.14 C36.87 -0.01, 43.9 4.48, 48.25 9.53 C52.59 14.59, 55.35 22.12, 57.51 30.47 C59.68 38.82, 61.9 50.64, 61.24 59.65 C60.58 68.66, 57.28 78.11, 53.56 84.51 C49.84 90.91, 44.63 95.74, 38.91 98.06 C33.2 100.39, 24.47 101.24, 19.27 98.48 C14.06 95.72, 10.96 88.69, 7.67 81.52 C4.38 74.34, 0.1 64.46, -0.48 55.43 C-1.07 46.41, 1.7 35.49, 4.15 27.37 C6.6 19.25, 9.91 11.39, 14.2 6.69 C18.49 2, 26.92 0.3, 29.89 -0.81 C32.87 -1.92, 31.75 -0.72, 32.03 0.06" stroke="none" stroke-width="0" fill="#868e96"></path><path d="M33.36 -0.31 C38.67 -0.29, 44.68 4.94, 48.82 10.39 C52.95 15.83, 56.18 23.95, 58.15 32.37 C60.11 40.79, 61.72 51.91, 60.59 60.91 C59.46 69.9, 55.49 80, 51.36 86.35 C47.22 92.71, 40.93 97.14, 35.77 99.05 C30.61 100.95, 25.43 100.76, 20.41 97.79 C15.38 94.82, 9.05 88.58, 5.62 81.21 C2.19 73.85, 0.08 62.61, -0.18 53.58 C-0.43 44.55, 1.46 34.81, 4.1 27.05 C6.73 19.29, 9.88 11.3, 15.63 7.02 C21.38 2.73, 33.68 1.26, 38.59 1.33 C43.51 1.4, 45.26 6.38, 45.11 7.45 M38.26 0.28 C43.38 1.51, 47.3 9.5, 50.67 16.19 C54.04 22.89, 57.17 31.68, 58.49 40.45 C59.81 49.22, 60.14 60.27, 58.56 68.81 C56.99 77.35, 53.42 86.5, 49.02 91.69 C44.61 96.89, 37.58 99.72, 32.13 100 C26.68 100.28, 21.26 97.5, 16.32 93.38 C11.37 89.26, 5.14 83.13, 2.48 75.26 C-0.17 67.39, -0.27 55.42, 0.38 46.16 C1.04 36.91, 2.94 27.11, 6.42 19.73 C9.89 12.34, 16.41 5.13, 21.24 1.87 C26.07 -1.39, 32.83 -0.09, 35.42 0.15 C38 0.38, 36.57 2.48, 36.75 3.28" stroke="#1e1e1e" stroke-width="2" fill="none"></path></g><g stroke-linecap="round"><g transform="translate(211.92082773888728 390.5621027112813) rotate(29.19999402168023 31.81725963185727 42.764954825478526)" fill-rule="evenodd"><path d="M1.74 1.74 L-1.59 86.76 L65.32 87.39 L63.04 -1.61 L0.37 1.41" stroke="none" stroke-width="0" fill="#ced4da" fill-rule="evenodd"></path><path d="M0 0 C1.28 20.58, 1.08 45.25, -1.12 87.21 M0 0 C-0.25 22.05, -0.02 43.7, -1.12 87.21 M-1.12 87.21 C18.15 88.09, 36.9 88.14, 64.75 87.21 M-1.12 87.21 C17.62 86.35, 35.92 85.84, 64.75 87.21 M64.75 87.21 C63.43 59.59, 63.47 32.14, 64.75 -1.68 M64.75 87.21 C65.29 58.09, 63.39 30.1, 64.75 -1.68 M64.75 -1.68 C44.15 -0.67, 20.38 -0.84, 0 0 M64.75 -1.68 C46.46 -0.86, 26.03 -0.47, 0 0 M0 0 C0 0, 0 0, 0 0 M0 0 C0 0, 0 0, 0 0" stroke="#1e1e1e" stroke-width="2" fill="none"></path></g></g><mask></mask></svg>